<svg width="60" height="70" viewBox="0 0 60 70" fill="none" xmlns="http://www.w3.org/2000/svg">
<path d="M43.4776 51.2278C37.4113 51.2278 33.3232 50.233 31.2132 48.2435C30.3164 47.3979 29.7625 46.4528 29.5515 45.4083C29.3405 44.314 29.235 42.6478 29.235 40.4095H30.8176C31.2923 42.8965 32.4264 44.8363 34.2199 46.229C36.0662 47.572 38.6246 48.2435 41.8951 48.2435C44.7963 48.2435 46.9591 47.7709 48.3833 46.8259C49.8603 45.8808 50.5989 44.6125 50.5989 43.0208C50.5989 41.5784 50.0186 40.3349 48.8581 39.2904C47.7503 38.2459 45.9568 37.2511 43.4776 36.306L38.7301 34.4408C35.5651 33.2471 33.1913 31.8544 31.6088 30.2627C30.0263 28.671 29.235 26.7063 29.235 24.3686C29.235 21.3345 30.4483 18.9719 32.8748 17.2807C35.3013 15.5399 38.4399 14.6694 42.2907 14.6694C48.0932 14.6694 52.0495 15.6642 54.1595 17.6538C55.0562 18.4994 55.6101 19.4444 55.8211 20.4889C56.0321 21.5335 56.1376 23.1997 56.1376 25.4877H54.5551C54.1331 23.0008 53.0254 21.0858 51.2319 19.7428C49.4383 18.3501 46.9855 17.6538 43.8732 17.6538C41.394 17.6538 39.4422 18.1512 38.0179 19.146C36.6464 20.091 35.9607 21.3345 35.9607 22.8764C35.9607 25.4629 38.0707 27.5768 42.2907 29.2182L47.0382 31.0834C50.6252 32.4761 53.2364 33.9683 54.8716 35.5599C56.5069 37.1019 57.3245 39.0914 57.3245 41.5286C57.3245 44.5627 56.0321 46.9502 53.4474 48.6911C50.8626 50.3822 47.5393 51.2278 43.4776 51.2278Z" fill="black"/>
<path d="M10.6322 13.177C10.6322 9.65381 10.1193 7.06322 9.09362 5.40525C8.06792 3.67826 6.01653 2.81466 2.93944 2.81466H0.741516V0.742188H10.6322C13.3429 0.742188 15.3577 1.08767 16.6765 1.77842C18.0685 2.40016 19.0575 3.57463 19.6436 5.30162C20.2298 7.02861 20.5228 9.65381 20.5228 13.177V64.9888H59.5359V69.1337H10.6322V13.177Z" fill="black"/>
</svg>
